# xmcd
#
# Track frame offsets: 
#        150
#        13856
#        31202
#        44021
#        57147
#        71318
#        80694
#
# Disc length: 1274 seconds
#
# Revision: 0
# Processed by: cddbd v1.4PL0 Copyright (c) Steve Scherf et al.
# Submitted via: ExactAudioCopy v0.95a3
#
DISCID=5604f807
DTITLE=The Stumblers - Flux
DYEAR=1900
DGENRE=
TTITLE0=flux
TTITLE1=been with you
TTITLE2=medievil moods
TTITLE3=her alibi
TTITLE4=2 green frogs
TTITLE5=evermore
TTITLE6=the interview
EXTD=
EXTT0=
EXTT1=
EXTT2=
EXTT3=
EXTT4=
EXTT5=
EXTT6=
PLAYORDER=
